<svg width="1148" height="939" viewBox="0 0 1148 939" fill="none" xmlns="http://www.w3.org/2000/svg">
<rect width="1148" height="939" fill="#F7F7F7"/>
<g clip-path="url(#clip0_37_61)">
<rect width="771.205" height="698" transform="translate(324 167)" fill="white"/>
<path d="M856.933 863.242H638.107C605.286 863.242 578.583 836.589 578.583 803.827V226.414C578.583 193.653 605.286 167 638.107 167H856.933C889.754 167 916.456 193.653 916.456 226.414C920.53 458.285 927.476 717.945 916.456 803.827C916.456 836.589 889.754 863.242 856.933 863.242Z" fill="#3F3D56"/>
<path d="M919.508 379.392C918.119 379.392 916.99 380.519 916.99 381.905V462.337C916.99 463.724 918.119 464.851 919.508 464.851C920.896 464.851 922.026 463.724 922.026 462.337V381.905C922.026 380.519 920.896 379.392 919.508 379.392Z" fill="#3F3D56"/>
<path d="M910.791 226.415V803.817C910.791 832.333 888.556 855.658 860.441 857.468H860.428C860.013 857.493 859.597 857.518 859.169 857.531C858.426 857.569 857.683 857.581 856.928 857.581C856.928 857.581 854.158 857.38 849.097 857.003C843.985 856.626 836.544 856.061 827.264 855.319C824.482 855.105 821.548 854.867 818.451 854.615C812.281 854.113 805.508 853.56 798.243 852.931C795.347 852.693 792.35 852.429 789.291 852.165C773.653 850.82 756.14 849.249 737.669 847.464C734.547 847.175 731.399 846.874 728.226 846.56C727.395 846.472 584.25 810.554 584.25 803.817V226.415C584.25 196.717 608.361 172.651 638.112 172.651H670.269C675.406 172.651 679.536 176.647 679.976 181.762C680.014 182.101 680.052 182.441 680.115 182.78C681.047 187.92 685.768 191.502 691.006 191.502H804.035C809.272 191.502 813.994 187.92 814.925 182.78C814.988 182.441 815.026 182.101 815.064 181.762C815.505 176.647 819.634 172.651 824.771 172.651H856.928C886.68 172.651 910.791 196.717 910.791 226.415Z" fill="white"/>
<path d="M577.324 319.067C575.936 319.067 574.806 320.195 574.806 321.581V341.689C574.806 343.075 575.936 344.202 577.324 344.202C578.713 344.202 579.842 343.075 579.842 341.689V321.581C579.842 320.195 578.713 319.067 577.324 319.067Z" fill="#3F3D56"/>
<path d="M577.324 379.392C575.936 379.392 574.806 380.519 574.806 381.905V420.864C574.806 422.251 575.936 423.378 577.324 423.378C578.713 423.378 579.842 422.251 579.842 420.864V381.905C579.842 380.519 578.713 379.392 577.324 379.392Z" fill="#3F3D56"/>
<path d="M577.324 434.689C575.936 434.689 574.806 435.816 574.806 437.202V476.162C574.806 477.548 575.936 478.675 577.324 478.675C578.713 478.675 579.842 477.548 579.842 476.162V437.202C579.842 435.816 578.713 434.689 577.324 434.689Z" fill="#3F3D56"/>
<path d="M669.442 181.453H621.186C620.952 181.453 620.762 181.642 620.762 181.876V187.314C620.762 187.547 620.952 187.737 621.186 187.737H669.442C669.676 187.737 669.866 187.547 669.866 187.314V181.876C669.866 181.642 669.676 181.453 669.442 181.453Z" fill="#E6E6E6"/>
<path d="M832.728 187.737C835.51 187.737 837.765 185.486 837.765 182.71C837.765 179.933 835.51 177.683 832.728 177.683C829.947 177.683 827.692 179.933 827.692 182.71C827.692 185.486 829.947 187.737 832.728 187.737Z" fill="#E6E6E6"/>
<path d="M846.578 187.737C849.36 187.737 851.615 185.486 851.615 182.71C851.615 179.933 849.36 177.683 846.578 177.683C843.797 177.683 841.542 179.933 841.542 182.71C841.542 185.486 843.797 187.737 846.578 187.737Z" fill="#E6E6E6"/>
<path d="M860.428 187.737C863.209 187.737 865.464 185.486 865.464 182.71C865.464 179.933 863.209 177.683 860.428 177.683C857.646 177.683 855.392 179.933 855.392 182.71C855.392 185.486 857.646 187.737 860.428 187.737Z" fill="#E6E6E6"/>
<path d="M343.539 863.379C343.539 864.278 344.263 865 345.163 865H1093.58C1094.48 865 1095.2 864.278 1095.2 863.379C1095.2 862.479 1094.48 861.757 1093.58 861.757H345.163C344.263 861.757 343.539 862.479 343.539 863.379Z" fill="#CCCCCC"/>
<path d="M986.23 598.907V743.332C986.23 756.104 975.82 766.494 963.025 766.494H605.394C592.599 766.494 582.189 756.104 582.189 743.332V598.907C582.189 586.135 592.599 575.745 605.394 575.745H963.025C975.82 575.745 986.23 586.135 986.23 598.907Z" fill="white"/>
<path d="M986.23 598.907V743.332C986.23 756.104 975.82 766.494 963.025 766.494H605.394C592.599 766.494 582.189 756.104 582.189 743.332V598.907C582.189 586.135 592.599 575.745 605.394 575.745H963.025C975.82 575.745 986.23 586.135 986.23 598.907ZM963.025 763.769C974.333 763.769 983.5 754.619 983.5 743.332V670.519C983.5 619.682 942.212 578.47 891.282 578.47H605.394C594.086 578.47 584.919 587.62 584.919 598.907V743.332C584.919 754.619 594.086 763.769 605.394 763.769H963.025Z" fill="#3F3D56"/>
<path d="M742.728 663.001H696.016C694.839 663.001 693.881 663.957 693.881 665.133C693.881 666.308 694.839 667.265 696.016 667.265H742.728C743.905 667.265 744.863 666.308 744.863 665.133C744.863 663.957 743.905 663.001 742.728 663.001Z" fill="#00856F"/>
<path d="M813.708 663.001H766.997C765.819 663.001 764.861 663.957 764.861 665.133C764.861 666.308 765.819 667.265 766.997 667.265H813.708C814.886 667.265 815.843 666.308 815.843 665.133C815.843 663.957 814.886 663.001 813.708 663.001Z" fill="#00856F"/>
<path d="M742.728 686.308H696.016C694.839 686.308 693.881 687.264 693.881 688.44C693.881 689.615 694.839 690.572 696.016 690.572H742.728C743.905 690.572 744.863 689.615 744.863 688.44C744.863 687.264 743.905 686.308 742.728 686.308Z" fill="#00856F"/>
<path d="M813.708 686.308H766.997C765.819 686.308 764.861 687.264 764.861 688.44C764.861 689.615 765.819 690.572 766.997 690.572H813.708C814.886 690.572 815.843 689.615 815.843 688.44C815.843 687.264 814.886 686.308 813.708 686.308Z" fill="#00856F"/>
<path d="M886.823 688.44C886.823 687.264 885.866 686.308 884.688 686.308H837.977C836.799 686.308 835.841 687.264 835.841 688.44C835.841 689.615 836.799 690.572 837.977 690.572H884.688C885.866 690.572 886.823 689.615 886.823 688.44Z" fill="#00856F"/>
<path d="M715.428 644.391C716.605 644.391 717.563 643.435 717.563 642.259C717.563 641.084 716.605 640.128 715.428 640.128H668.717C667.539 640.128 666.581 641.084 666.581 642.259C666.581 643.435 667.539 644.391 668.717 644.391H715.428Z" fill="#00856F"/>
<path d="M852.992 643.524H899.703C900.881 643.524 901.839 642.568 901.839 641.392C901.839 640.217 900.881 639.261 899.703 639.261H852.992C851.814 639.261 850.856 640.217 850.856 641.392C850.856 642.568 851.814 643.524 852.992 643.524Z" fill="#00856F"/>
<path d="M735.106 643.973H831.949C833.126 643.973 834.084 643.016 834.084 641.841C834.084 640.665 833.126 639.709 831.949 639.709H735.106C733.928 639.709 732.97 640.665 732.97 641.841C732.97 643.016 733.928 643.973 735.106 643.973Z" fill="#00856F"/>
<path d="M773.209 707.483H726.498C725.32 707.483 724.362 708.439 724.362 709.615C724.362 710.79 725.32 711.747 726.498 711.747H773.209C774.387 711.747 775.344 710.79 775.344 709.615C775.344 708.439 774.387 707.483 773.209 707.483Z" fill="#00856F"/>
<path d="M924.07 597.819V742.243C924.07 755.015 913.661 765.405 900.865 765.405H756.175C743.379 765.405 732.97 755.015 732.97 742.243V597.819C732.97 585.046 743.379 574.656 756.175 574.656H900.865C913.661 574.656 924.07 585.046 924.07 597.819Z" fill="white"/>
<path d="M924.07 597.819V742.243C924.07 755.015 913.661 765.405 900.865 765.405H756.175C743.379 765.405 732.97 755.015 732.97 742.243V597.819C732.97 585.046 743.379 574.656 756.175 574.656H900.865C913.661 574.656 924.07 585.046 924.07 597.819ZM891.889 762.68C908.155 762.68 921.34 749.519 921.34 733.283V669.43C921.34 618.593 880.053 577.381 829.122 577.381H756.175C744.867 577.381 735.7 586.531 735.7 597.819V722.092C735.7 744.508 753.905 762.68 776.363 762.68L891.889 762.68Z" fill="#3F3D56"/>
<path d="M847.781 633.641H801.07C799.892 633.641 798.934 632.685 798.934 631.51C798.934 630.334 799.892 629.378 801.07 629.378H847.781C848.958 629.378 849.916 630.334 849.916 631.51C849.916 632.685 848.958 633.641 847.781 633.641Z" fill="#00856F"/>
<path d="M847.781 679.099H801.07C799.892 679.099 798.934 678.143 798.934 676.967C798.934 675.792 799.892 674.836 801.07 674.836H847.781C848.958 674.836 849.916 675.792 849.916 676.967C849.916 678.143 848.958 679.099 847.781 679.099Z" fill="#00856F"/>
<path d="M824.576 741.774H777.865C776.687 741.774 775.729 740.817 775.729 739.642C775.729 738.467 776.687 737.51 777.865 737.51H824.576C825.753 737.51 826.711 738.467 826.711 739.642C826.711 740.817 825.753 741.774 824.576 741.774Z" fill="#00856F"/>
<path d="M872.847 656.385H776.004C774.826 656.385 773.868 655.429 773.868 654.253C773.868 653.078 774.826 652.122 776.004 652.122H872.847C874.024 652.122 874.982 653.078 874.982 654.253C874.982 655.429 874.024 656.385 872.847 656.385Z" fill="#00856F"/>
<path d="M896.846 517.79C896.846 472.736 858.696 447.951 815.118 436.213C759.248 421.162 718.329 451.617 733.391 517.79C736.805 532.787 744.969 550.303 755.076 565.286H835.275C862.065 547.877 896.846 552.76 896.846 517.79Z" fill="#00856F"/>
<path d="M813.919 602.959C818.481 594.278 824.265 588.015 830.638 583.248H755.521C774.854 610.813 800.493 628.505 813.919 602.959Z" fill="#00856F"/>
<path d="M805.251 469.558C810.073 469.558 813.983 473.46 813.983 478.274V495.705H796.519V478.274C796.519 473.46 800.429 469.558 805.251 469.558ZM818.348 495.705V478.274C818.348 471.053 812.485 465.2 805.251 465.2C798.017 465.2 792.154 471.053 792.154 478.274V495.705C787.331 495.705 783.422 499.607 783.422 504.42V526.209C783.422 531.023 787.331 534.925 792.154 534.925H818.348C823.171 534.925 827.08 531.023 827.08 526.209V504.42C827.08 499.607 823.171 495.705 818.348 495.705ZM792.154 500.063H818.348C820.76 500.063 822.714 502.014 822.714 504.42V526.209C822.714 528.616 820.76 530.567 818.348 530.567H792.154C789.742 530.567 787.788 528.616 787.788 526.209V504.42C787.788 502.014 789.742 500.063 792.154 500.063Z" fill="white"/>
</g>
<g clip-path="url(#clip1_37_61)">
<path d="M417.926 848.894C492.579 848.894 553.097 838.51 553.097 825.701C553.097 812.891 492.579 802.507 417.926 802.507C343.273 802.507 282.754 812.891 282.754 825.701C282.754 838.51 343.273 848.894 417.926 848.894Z" fill="#9F9F9F" fill-opacity="0.29"/>
<path d="M509.201 732.105C509.201 771.004 468.741 803.172 417.926 803.172C367.111 803.172 326.65 771.004 326.65 732.105C326.65 693.205 367.111 661.037 417.926 661.037C468.741 661.037 509.201 693.205 509.201 732.105Z" fill="white" stroke="black" stroke-width="1.5"/>
<path d="M401.546 819.718C401.546 831.439 389.24 841.574 373.156 841.574C357.072 841.574 344.766 831.439 344.766 819.718C344.766 807.994 357.072 797.858 373.156 797.858C389.24 797.858 401.546 807.994 401.546 819.718Z" fill="#00856F" stroke="black" stroke-width="1.5"/>
<path d="M489.779 819.859C489.779 831.581 477.474 841.716 461.39 841.716C445.306 841.716 433 831.581 433 819.859C433 808.135 445.306 798 461.39 798C477.474 798 489.779 808.135 489.779 819.859Z" fill="#00856F" stroke="black" stroke-width="1.5"/>
<path d="M294.6 595.284C294.6 579.446 307.522 566.486 323.863 565.461C323.863 582.935 323.863 583.951 323.863 585.73C323.863 586.908 323.863 588.422 323.863 595.284C323.863 602.861 323.863 603.917 323.863 605.201C323.863 606.835 323.863 608.84 323.863 625.106C307.522 624.081 294.6 611.121 294.6 595.284Z" fill="white" stroke="black" stroke-width="1.5"/>
<path d="M349.643 540.157H488.995C503.233 540.157 514.775 551.159 514.775 564.731V627.164C514.775 640.736 503.233 651.739 488.995 651.739H349.643C335.406 651.739 323.863 640.736 323.863 627.164V564.731C323.863 551.159 335.406 540.157 349.643 540.157Z" fill="white" stroke="black" stroke-width="1.5"/>
<path d="M544.04 595.284C544.04 611.121 531.117 624.081 514.776 625.106C514.776 607.632 514.776 606.616 514.776 604.837C514.776 603.659 514.776 602.145 514.776 595.284C514.776 587.706 514.776 586.651 514.776 585.366C514.776 583.732 514.776 581.727 514.776 565.461C531.117 566.486 544.04 579.446 544.04 595.284Z" fill="white" stroke="black" stroke-width="1.5"/>
<path d="M463.083 688.269H459.167C458.709 688.269 458.338 688.622 458.338 689.059V714.046C458.338 714.482 458.709 714.836 459.167 714.836H463.083C463.541 714.836 463.912 714.482 463.912 714.046V689.059C463.912 688.622 463.541 688.269 463.083 688.269Z" fill="#00856F"/>
<path d="M447.19 699.686V703.419C447.19 703.855 447.561 704.209 448.019 704.209H474.232C474.689 704.209 475.06 703.855 475.06 703.419V699.686C475.06 699.249 474.689 698.896 474.232 698.896H448.019C447.561 698.896 447.19 699.249 447.19 699.686Z" fill="#00856F"/>
<path d="M377.514 698.896H371.94V704.209H377.514V698.896Z" fill="#FB0000"/>
<path d="M385.875 698.896H380.301V704.209H385.875V698.896Z" fill="#00AF27"/>
<path d="M357.806 564.731H483.62C491.976 564.731 498.75 571.188 498.75 579.154V603.443C498.75 611.409 491.976 617.866 483.62 617.866H357.806C349.45 617.866 342.676 611.409 342.676 603.443V579.154C342.676 571.188 349.45 564.731 357.806 564.731Z" fill="black" stroke="#00856F"/>
<path d="M374.03 606.575C382.496 606.575 389.359 600.033 389.359 591.963C389.359 583.893 382.496 577.351 374.03 577.351C365.564 577.351 358.701 583.893 358.701 591.963C358.701 600.033 365.564 606.575 374.03 606.575Z" fill="white" stroke="#00856F" stroke-width="1.5"/>
<path d="M467.396 607.903C475.862 607.903 482.725 601.361 482.725 593.291C482.725 585.221 475.862 578.679 467.396 578.679C458.93 578.679 452.067 585.221 452.067 593.291C452.067 601.361 458.93 607.903 467.396 607.903Z" fill="white" stroke="#00856F" stroke-width="1.5"/>
<path d="M420.016 579.343C421.94 579.343 423.5 577.857 423.5 576.022C423.5 574.188 421.94 572.702 420.016 572.702C418.092 572.702 416.532 574.188 416.532 576.022C416.532 577.857 418.092 579.343 420.016 579.343Z" fill="#00AF27"/>
<path d="M479.241 494.993C479.241 493.892 480.177 493 481.331 493C482.486 493 483.422 493.892 483.422 494.993V538.164H479.241V494.993Z" fill="black"/>
<path d="M544.736 757.343C559.359 757.343 571.213 746.044 571.213 732.105C571.213 718.166 559.359 706.866 544.736 706.866C530.114 706.866 518.26 718.166 518.26 732.105C518.26 746.044 530.114 757.343 544.736 757.343Z" fill="#00856F" stroke="black"/>
<path d="M291.477 757.478C306.1 757.478 317.954 746.178 317.954 732.239C317.954 718.3 306.1 707 291.477 707C276.854 707 265 718.3 265 732.239C265 746.178 276.854 757.478 291.477 757.478Z" fill="#00856F" stroke="black"/>
</g>
<defs>
<clipPath id="clip0_37_61">
<rect width="771.205" height="698" fill="white" transform="translate(324 167)"/>
</clipPath>
<clipPath id="clip1_37_61">
<rect width="301" height="356" fill="white" transform="translate(273 493)"/>
</clipPath>
</defs>
</svg>
